<?xml version="1.0" standalone="no"?>
<!DOCTYPE svg PUBLIC "-//W3C//DTD SVG 20010904//EN"
 "http://www.w3.org/TR/2001/REC-SVG-20010904/DTD/svg10.dtd">
<svg version="1.0" xmlns="http://www.w3.org/2000/svg"
 width="120.000000pt" height="146.000000pt" viewBox="0 0 120.000000 146.000000"
 preserveAspectRatio="xMidYMid meet">

<g transform="translate(0.000000,146.000000) scale(0.100000,-0.100000)"
fill="#000000" stroke="none">
<path d="M0 730 l0 -730 600 0 600 0 0 730 0 730 -600 0 -600 0 0 -730z m325
487 l180 -105 3 -96 c1 -53 -1 -96 -5 -96 -4 0 -46 23 -93 50 -47 28 -88 50
-92 50 -5 0 -8 -202 -8 -450 l0 -450 -95 0 -95 0 0 606 c0 481 3 605 13 601 6
-3 93 -52 192 -110z m775 -492 l0 -605 -100 0 -100 0 0 450 c0 248 -3 450 -6
450 -11 0 -179 -103 -186 -114 -4 -6 -8 -185 -8 -398 l0 -388 -95 0 -95 0 0
395 0 395 95 0 95 0 0 93 c0 50 4 97 8 102 9 14 370 225 384 225 5 0 8 -272 8
-605z"/>
</g>
</svg>
