<?xml version="1.0" standalone="no"?>
<!DOCTYPE svg PUBLIC "-//W3C//DTD SVG 20010904//EN"
 "http://www.w3.org/TR/2001/REC-SVG-20010904/DTD/svg10.dtd">
<svg version="1.0" xmlns="http://www.w3.org/2000/svg"
 width="850.000000pt" height="1064.000000pt" viewBox="0 0 850.000000 1064.000000"
 preserveAspectRatio="xMidYMid meet">

<g transform="translate(0.000000,1064.000000) scale(0.100000,-0.100000)"
fill="#000000" stroke="none">
<path d="M1480 9630 c0 -5 7 -10 15 -10 8 0 15 5 15 10 0 6 -7 10 -15 10 -8 0
-15 -4 -15 -10z"/>
<path d="M1690 9630 c0 -5 -13 -10 -30 -10 -16 0 -30 -4 -30 -8 0 -10 27 -12
160 -14 114 -2 170 7 170 27 0 19 -56 20 -75 1 -17 -17 -147 -15 -153 3 -5 14
-42 15 -42 1z"/>
<path d="M2725 9629 c-28 -27 -93 -73 -120 -84 -45 -20 -283 -8 -359 17 -36
12 -72 17 -91 14 -27 -5 -68 3 -152 29 -35 11 -27 -11 11 -32 97 -52 146 -86
146 -102 0 -27 -10 -32 -33 -16 -17 12 -23 12 -42 -1 -20 -13 -61 -14 -332 -3
-534 21 -632 22 -688 5 -77 -23 -206 -37 -282 -31 -64 6 -168 26 -313 62 -91
23 -136 27 -168 15 -15 -6 -53 -14 -84 -18 -51 -5 -59 -4 -65 12 -3 11 -11 22
-17 26 -22 15 -77 8 -106 -14 l-30 -22 0 -120 c0 -69 5 -134 12 -153 10 -27
10 -38 0 -53 -9 -15 -12 -151 -12 -549 l0 -529 22 -5 c13 -4 32 0 43 7 45 29
136 24 149 -10 8 -21 -17 -29 -91 -29 -35 0 -63 -4 -63 -8 0 -30 218 -54 236
-26 11 19 107 59 140 59 42 0 63 24 35 39 -28 15 -50 14 -124 -9 l-65 -20 -39
22 -38 23 50 6 c28 4 62 11 76 17 35 14 140 5 214 -19 183 -58 225 -69 251
-69 41 0 106 -19 126 -37 13 -12 51 -16 171 -19 179 -3 338 -25 423 -56 51
-19 75 -21 174 -19 154 5 209 4 385 -7 137 -9 154 -8 194 9 24 11 48 19 53 19
5 0 24 11 41 24 45 34 125 67 172 71 59 4 94 21 105 50 5 14 17 25 28 25 10 0
23 5 29 11 18 18 66 -16 58 -42 -8 -24 13 -25 54 -2 l30 18 38 -41 c21 -22 54
-46 73 -53 19 -7 57 -22 84 -32 27 -10 56 -19 65 -19 9 0 41 -8 71 -19 105
-36 641 -48 716 -16 117 50 156 57 331 62 166 5 176 4 270 -22 54 -16 116 -27
138 -26 119 5 227 -1 288 -18 52 -15 55 -18 30 -37 -17 -13 -17 -15 -1 -28 10
-7 46 -16 80 -20 34 -3 82 -16 106 -27 38 -19 55 -21 120 -16 96 8 315 -10
365 -29 20 -8 48 -14 61 -14 13 0 45 -10 72 -21 35 -16 74 -23 143 -25 81 -3
100 -7 130 -28 48 -33 88 -47 114 -41 13 4 41 -4 69 -19 26 -14 69 -29 95 -35
26 -6 107 -26 178 -46 72 -20 157 -40 190 -45 33 -5 94 -13 135 -19 41 -6 175
-13 298 -16 226 -5 228 -5 297 -48 11 -6 22 -14 25 -17 11 -11 77 -38 110 -44
19 -4 58 -16 85 -26 48 -19 247 -43 271 -33 7 2 26 -3 43 -11 30 -16 49 -8 35
15 -4 6 -1 9 7 7 8 -2 35 -10 62 -17 39 -11 47 -17 42 -32 -6 -17 -1 -19 39
-19 25 0 46 5 46 10 0 21 114 11 166 -14 27 -13 77 -27 112 -30 l62 -7 0 70 0
70 -37 10 c-21 6 -63 11 -93 12 -30 0 -64 4 -75 8 -12 5 -30 3 -48 -6 -26 -13
-28 -12 -37 12 -8 22 -16 25 -55 25 -25 0 -45 -4 -45 -10 0 -17 -29 -11 -47
10 -10 11 -23 20 -29 20 -7 0 -14 6 -17 13 -5 13 -62 28 -172 45 -33 6 -85 16
-115 25 -85 23 -183 31 -178 15 3 -7 18 -17 34 -22 16 -4 43 -14 59 -22 30
-13 30 -13 4 -13 -38 -1 -143 19 -154 30 -5 5 -21 9 -36 9 -14 0 -53 12 -85
27 -59 27 -60 27 -309 28 -189 1 -256 5 -275 15 -14 7 -59 14 -100 15 -55 1
-98 10 -160 32 -47 17 -121 38 -165 47 -85 18 -178 56 -229 94 -17 12 -51 29
-76 36 -25 8 -76 26 -115 41 -38 15 -104 34 -145 42 -41 8 -79 19 -84 24 -6 5
-19 9 -30 9 -11 0 -30 10 -43 22 -19 18 -40 23 -121 28 -65 5 -107 13 -124 24
-20 13 -36 15 -85 8 -33 -5 -69 -5 -79 -1 -10 4 -30 8 -42 8 -13 1 -60 17
-103 36 -58 26 -94 35 -133 35 -51 0 -130 20 -171 42 -18 10 -59 17 -206 34
-34 4 -58 0 -92 -15 -44 -20 -49 -20 -154 -7 -146 20 -301 8 -398 -29 -139
-53 -152 -55 -306 -55 -89 0 -178 -6 -226 -15 -142 -27 -234 -12 -258 42 -5
12 -20 27 -33 33 -21 9 -24 15 -19 47 5 26 2 42 -9 54 -12 13 -13 22 -5 37 9
16 6 23 -13 36 -22 14 -23 18 -13 41 14 29 25 30 74 10 31 -13 108 -15 228 -5
6 0 1 7 -9 15 -19 15 -19 15 1 15 58 0 71 27 16 32 -20 2 -38 8 -40 15 -6 18
72 36 96 23 11 -5 59 -10 108 -10 99 -1 123 -11 123 -55 l0 -27 -56 7 c-43 5
-61 3 -81 -10 -18 -12 -37 -15 -64 -11 -40 6 -66 -10 -27 -18 85 -18 129 -16
176 5 26 12 63 25 82 28 32 6 35 9 32 40 -3 46 18 74 67 91 46 15 58 11 181
-65 l65 -40 99 3 c100 3 200 -14 258 -44 15 -8 44 -14 65 -14 21 0 107 -7 190
-17 134 -15 154 -19 159 -36 4 -14 8 -16 14 -7 16 26 247 15 279 -14 20 -17
98 -52 136 -61 17 -4 48 -15 70 -25 22 -10 85 -26 140 -36 55 -9 111 -23 125
-29 14 -7 57 -16 95 -19 105 -11 199 -27 212 -38 7 -5 38 -18 70 -27 46 -14
59 -22 61 -40 3 -15 17 -28 45 -40 47 -21 57 -19 57 10 0 31 75 25 183 -15
168 -61 252 -86 290 -86 20 0 56 -4 79 -10 102 -22 278 -42 377 -41 158 1 386
-45 489 -97 23 -13 42 -26 42 -30 0 -4 5 -14 10 -22 8 -13 11 -12 23 3 14 20
-1 23 211 -44 33 -11 64 -19 70 -19 7 0 23 -8 36 -17 30 -21 31 -22 156 -38
56 -8 128 -23 160 -35 33 -12 84 -30 114 -41 30 -11 79 -23 108 -26 l52 -6 0
116 0 116 -37 6 c-21 4 -60 17 -88 30 -53 25 -163 59 -230 70 -22 4 -58 15
-80 24 -23 10 -58 21 -80 25 -22 4 -67 24 -100 44 -39 23 -74 36 -100 37 -29
1 -41 6 -43 18 -4 19 -19 21 -54 8 -14 -5 -45 -3 -78 4 -170 38 -235 47 -435
61 -121 9 -246 15 -277 14 -77 -2 -415 48 -442 65 -12 7 -39 17 -61 20 -133
23 -247 60 -332 109 -58 33 -130 56 -174 56 -20 0 -56 7 -80 16 -76 27 -244
55 -327 54 -36 -1 -45 3 -49 20 -3 11 -13 20 -22 20 -9 0 -37 11 -63 25 -54
29 -90 33 -82 10 10 -25 -12 -17 -43 15 -15 17 -32 30 -37 30 -4 0 -31 12 -60
26 -104 52 -218 75 -252 49 -29 -22 -81 -18 -106 7 -12 12 -40 25 -62 30 -101
20 -109 21 -102 10 4 -7 16 -12 27 -12 25 0 59 -17 59 -30 0 -5 -14 -5 -32 1
-18 5 -51 9 -73 9 -22 0 -94 14 -160 31 -66 17 -138 35 -160 39 -86 19 -121
28 -145 38 -14 5 -63 15 -110 22 -47 6 -110 18 -140 25 -51 13 -203 27 -295
28 -48 1 -153 -38 -215 -78 -25 -16 -70 -35 -100 -42 -64 -14 -150 -17 -150
-5 0 12 46 32 71 32 12 0 33 14 47 30 15 17 32 30 39 30 7 0 35 14 61 30 27
17 56 30 64 30 8 0 29 16 48 35 21 21 53 40 84 50 84 25 89 35 14 28 -74 -6
-80 -1 -47 41 l20 26 -24 0 c-13 0 -27 -3 -31 -7 -10 -11 -96 -12 -102 -1 -11
18 28 47 72 54 51 7 98 -8 132 -43 29 -30 37 -29 79 7 18 17 40 30 48 30 8 0
18 6 22 14 12 22 246 24 342 3 40 -9 79 -21 85 -26 7 -6 43 -18 81 -26 37 -9
86 -26 109 -38 31 -16 59 -22 116 -22 61 0 81 -5 105 -23 26 -19 51 -23 190
-32 202 -13 230 -18 282 -41 24 -10 52 -19 64 -19 11 0 33 -6 47 -14 15 -8 81
-27 147 -42 66 -15 180 -42 254 -61 73 -18 147 -33 164 -33 16 0 48 -5 71 -11
103 -27 182 -52 190 -60 6 -5 20 -9 33 -9 39 0 292 -66 518 -135 193 -60 292
-77 500 -85 205 -9 351 -24 395 -41 14 -5 59 -11 100 -14 152 -9 337 -46 394
-79 22 -13 82 -33 131 -45 106 -25 113 -27 275 -79 69 -22 142 -45 163 -51
l37 -9 -2 235 -3 235 -40 15 c-38 14 -64 20 -183 45 -30 7 -69 24 -89 40 -20
15 -46 28 -58 28 -12 0 -30 9 -39 19 -10 11 -25 17 -37 14 -30 -8 -71 24 -63
49 5 18 3 20 -16 15 -29 -7 -83 19 -96 46 -5 13 -40 37 -79 57 -38 19 -90 48
-114 64 -25 16 -58 35 -75 42 -74 32 -101 85 -48 92 12 2 32 17 44 33 25 33
67 39 89 13 7 -9 40 -29 73 -46 69 -35 141 -101 133 -122 -3 -8 -24 -17 -46
-21 -47 -8 -55 -31 -15 -41 14 -4 47 -4 74 -2 29 3 54 0 60 -6 8 -8 14 -6 21
7 15 25 32 20 49 -14 16 -33 123 -100 137 -86 4 4 0 20 -9 35 -8 15 -18 39
-22 55 -3 15 -10 27 -15 27 -4 0 -28 16 -52 35 -24 19 -50 35 -57 35 -7 0 -37
22 -65 48 -62 58 -142 103 -292 164 -130 53 -205 78 -234 78 -41 0 -287 62
-364 92 -43 16 -110 34 -150 40 -40 5 -76 14 -82 19 -5 5 -25 9 -45 9 -19 0
-64 7 -100 16 -36 8 -114 22 -175 29 -60 8 -128 19 -150 24 -51 13 -259 48
-420 71 -183 26 -249 33 -360 34 -69 1 -158 9 -210 20 -55 11 -150 19 -245 22
-151 3 -320 22 -584 64 -71 11 -168 20 -215 20 -47 0 -131 7 -186 15 -55 8
-135 15 -177 15 -45 0 -78 4 -78 10 0 14 -37 13 -42 -1 -5 -16 -150 -18 -155
-1 -6 15 -743 18 -743 2 0 -10 19 -16 80 -24 96 -12 222 -38 283 -58 66 -22
69 -22 118 -5 78 28 200 33 293 12 62 -14 102 -16 180 -11 211 13 500 -13 931
-85 33 -6 170 -12 304 -15 208 -3 247 -6 262 -20 10 -9 16 -21 12 -27 -15 -25
-3 -73 24 -94 l28 -23 -122 0 c-123 0 -138 2 -293 41 -47 11 -107 23 -135 25
-130 11 -217 25 -270 43 -16 6 -115 13 -220 15 -637 16 -673 19 -774 63 -24
11 -46 13 -75 7 -46 -9 -315 -5 -331 4 -5 4 -33 7 -60 7 -31 1 -70 10 -99 24
-37 18 -58 22 -98 19 -29 -3 -56 -12 -62 -20 -6 -9 -27 -19 -46 -23 -19 -4
-41 -12 -49 -18 -7 -6 -23 -16 -35 -22 -11 -6 -20 -19 -18 -28 2 -11 -9 -19
-40 -28 -24 -6 -61 -22 -84 -35 -42 -25 -84 -32 -84 -14 0 5 -12 12 -27 16
-58 13 -113 37 -113 50 0 8 -18 25 -41 39 -22 15 -38 31 -36 38 5 16 157 13
213 -4 36 -11 46 -10 77 4 19 9 44 17 55 17 12 0 23 4 26 9 3 5 18 12 33 16
16 3 49 20 76 36 26 16 54 29 61 29 13 0 26 20 26 41 0 12 -182 11 -195 -2z
m-464 -111 c43 -12 48 -26 20 -52 -16 -15 -19 -15 -25 -1 -3 8 -17 20 -31 25
-14 5 -25 16 -25 25 0 18 10 19 61 3z m36 -101 c-29 -9 -43 -5 -33 11 3 5 18
7 33 4 l28 -5 -28 -10z m3605 -33 c15 -8 52 -14 82 -14 51 0 114 -10 196 -30
19 -5 69 -16 110 -24 41 -9 93 -20 115 -25 99 -24 276 -61 335 -71 36 -6 81
-15 100 -20 19 -5 80 -19 135 -31 55 -12 118 -30 140 -39 23 -10 74 -23 115
-29 67 -11 116 -20 258 -52 23 -5 53 -9 67 -9 31 0 31 -9 3 -55 -23 -36 -24
-36 -78 -31 -30 3 -93 15 -140 27 -47 12 -112 25 -145 30 -135 21 -161 25
-170 31 -6 3 -69 18 -140 32 -72 14 -157 32 -190 40 -103 25 -196 38 -305 43
-80 3 -120 10 -166 28 -36 14 -86 25 -120 27 -33 1 -73 8 -91 15 -18 7 -54 13
-80 13 -56 0 -130 19 -159 40 -28 20 -41 105 -18 118 21 12 112 3 146 -14z
m-402 1 c0 -8 -7 -15 -15 -15 -8 0 -15 7 -15 15 0 8 7 15 15 15 8 0 15 -7 15
-15z m-3342 -503 c2 -8 -8 -12 -30 -12 -31 1 -32 1 -13 15 21 17 37 15 43 -3z
m-51 -46 c47 -25 56 -27 88 -16 19 6 44 9 55 5 20 -6 70 -54 70 -66 0 -12 -64
-21 -135 -20 -57 1 -84 8 -144 36 -86 41 -96 42 -112 14 -10 -20 -17 -21 -123
-17 -100 5 -117 3 -170 -18 -33 -13 -65 -24 -72 -24 -6 0 -25 -7 -40 -15 -16
-8 -42 -15 -59 -15 -16 0 -52 -7 -79 -15 -27 -8 -58 -15 -69 -15 -16 0 -17 3
-7 15 7 8 21 15 31 15 9 0 24 6 31 13 13 12 86 49 138 69 14 5 47 14 75 19 34
6 58 18 76 39 l27 29 184 -3 c177 -3 185 -4 235 -30z m1347 -2 c10 -27 7 -34
-18 -34 -16 0 -26 -7 -29 -21 -4 -16 -9 -19 -24 -11 -11 6 -45 6 -87 1 -38 -5
-72 -7 -74 -4 -9 8 10 25 29 25 11 0 22 7 25 15 4 9 20 15 43 16 20 0 54 6 76
14 53 17 52 17 59 -1z m-2866 -100 c12 -8 22 -18 22 -23 0 -5 12 -12 27 -16
19 -4 23 -9 14 -15 -18 -11 -131 -4 -144 9 -6 6 -23 11 -39 11 -26 0 -68 33
-68 53 0 14 161 -3 188 -19z m2572 -15 c0 -11 -31 -12 -57 -2 -16 6 -15 8 7
13 28 7 50 2 50 -11z m-698 -2 c20 -7 45 -20 55 -29 10 -8 28 -21 41 -27 12
-6 22 -20 22 -29 0 -10 14 -33 31 -52 29 -32 30 -34 13 -47 -34 -25 -68 -7
-44 22 20 24 -6 47 -44 40 -42 -8 -115 25 -155 70 -32 37 -36 47 -24 58 10 11
65 8 105 -6z m606 -57 c37 0 63 -26 37 -36 -10 -4 -26 -2 -36 4 -10 7 -32 12
-49 12 -32 0 -33 1 -24 24 5 12 11 13 24 6 10 -6 32 -10 48 -10z m-2168 -28
c0 -10 6 -24 13 -31 10 -10 8 -11 -6 -5 -16 6 -37 34 -37 48 0 3 7 6 15 6 8 0
15 -8 15 -18z m227 -94 c16 -13 7 -28 -16 -28 -21 0 -54 33 -44 43 8 8 42 -1
60 -15z m-276 -41 c-13 -13 -31 0 -24 19 4 11 8 12 20 3 9 -8 10 -16 4 -22z
m2436 -94 c4 -11 -3 -24 -23 -39 -23 -19 -36 -22 -69 -17 -78 11 -72 33 15 57
71 19 70 19 77 -1z m-1182 -23 c3 -5 15 -10 26 -10 12 0 19 -7 19 -20 0 -11
-3 -20 -8 -20 -8 0 -39 -66 -42 -90 -1 -8 -2 -26 -1 -39 l1 -24 25 23 c14 13
29 38 33 54 5 17 15 31 23 31 20 0 23 -39 4 -55 -30 -25 -6 -60 43 -60 10 0
24 -11 30 -25 18 -40 15 -55 -13 -55 -33 0 -75 -20 -75 -37 0 -8 12 -13 34
-13 46 0 52 -14 20 -39 -31 -25 -42 -26 -63 -8 -27 23 -143 39 -262 36 -76 -2
-122 1 -136 9 -20 11 -23 10 -23 -7 0 -41 -114 -55 -184 -22 -23 10 -113 43
-201 72 -149 49 -166 53 -249 51 -49 -1 -107 3 -128 9 -21 5 -67 10 -101 11
-116 1 -125 15 -32 54 84 36 90 37 130 30 28 -6 35 -11 35 -31 0 -21 5 -23 58
-27 31 -2 79 0 106 5 29 5 51 5 55 -1 3 -5 23 -15 44 -22 47 -15 67 -2 37 25
-27 24 -25 31 9 43 15 5 48 23 72 38 24 16 67 34 94 39 40 8 51 15 53 32 4 29
29 33 202 32 80 -1 159 4 175 9 39 13 182 15 190 2z m885 -35 c0 -8 -9 -15
-20 -15 -24 0 -25 -8 -4 -32 24 -25 3 -49 -40 -43 -17 2 -35 4 -40 4 -5 1 -2
8 5 18 8 9 13 24 11 33 -2 10 10 22 30 32 42 21 58 22 58 3z m-110 -2 c0 -18
-116 -73 -153 -73 -27 0 -17 32 13 46 47 23 140 40 140 27z m-2340 -54 c13
-24 8 -34 -15 -26 -16 7 -21 47 -5 47 5 0 14 -9 20 -21z m273 -16 c15 -3 27
-9 27 -14 0 -12 -53 -11 -87 2 -22 8 -24 12 -13 19 8 6 22 7 30 4 8 -3 27 -8
43 -11z m281 -36 c24 -18 5 -26 -42 -20 -26 4 -30 8 -21 19 14 18 40 18 63 1z
m-964 -87 c0 -5 -5 -10 -11 -10 -5 0 -7 5 -4 10 3 6 8 10 11 10 2 0 4 -4 4
-10z m7593 -707 c-7 -2 -19 -2 -25 0 -7 3 -2 5 12 5 14 0 19 -2 13 -5z"/>
<path d="M6423 9594 c-3 -9 -16 -15 -32 -14 -14 1 -37 1 -51 1 l-25 -2 28 -15
c20 -11 32 -12 47 -4 11 6 24 9 29 6 4 -3 18 2 30 11 18 12 20 17 10 24 -20
13 -29 11 -36 -7z"/>
<path d="M651 9549 c16 -6 67 -6 135 -1 l109 9 -135 1 c-96 0 -128 -2 -109 -9z"/>
<path d="M4175 8642 c13 -12 73 -32 94 -31 15 0 -23 17 -79 34 -16 5 -22 4
-15 -3z"/>
<path d="M4320 8590 c8 -5 24 -10 35 -10 17 0 17 2 5 10 -8 5 -24 10 -35 10
-17 0 -17 -2 -5 -10z"/>
<path d="M4436 8560 c5 -5 29 -12 54 -15 29 -4 40 -3 30 3 -21 13 -96 24 -84
12z"/>
<path d="M3095 8280 c-15 -24 21 -39 59 -24 13 5 14 9 5 20 -13 16 -55 19 -64
4z"/>
<path d="M510 8068 c0 -6 -8 -20 -17 -30 -20 -22 -10 -35 32 -44 30 -5 30 -5
31 40 1 42 -1 46 -23 46 -12 0 -23 -5 -23 -12z"/>
<path d="M7476 7532 c-3 -3 -1 -11 5 -18 11 -13 39 -9 39 6 0 10 -37 20 -44
12z"/>
<path d="M3913 7422 c-13 -2 -23 -8 -23 -13 0 -12 67 -12 74 0 7 11 -21 18
-51 13z"/>
<path d="M4345 7410 c4 -6 11 -8 16 -5 14 9 11 15 -7 15 -8 0 -12 -5 -9 -10z"/>
<path d="M3760 7391 c0 -6 4 -12 9 -15 13 -8 42 4 35 15 -7 12 -44 12 -44 0z"/>
<path d="M3430 7370 c-11 -7 -5 -10 23 -10 20 0 37 5 37 10 0 13 -40 13 -60 0z"/>
<path d="M4852 7362 c-8 -5 6 -13 40 -21 29 -7 62 -19 73 -26 11 -6 45 -15 75
-18 118 -14 298 -53 313 -69 9 -8 33 -19 54 -22 21 -4 58 -11 83 -16 111 -24
252 -49 330 -60 47 -6 137 -23 201 -36 64 -13 131 -23 150 -22 19 1 79 -9 134
-22 84 -19 134 -23 310 -25 231 -4 208 11 -30 19 -139 5 -216 20 -286 58 -37
19 -65 24 -169 29 -164 9 -315 25 -338 38 -11 6 -65 17 -122 26 -68 10 -107
20 -114 31 -10 13 -16 13 -38 3 -22 -10 -33 -8 -70 10 -25 11 -52 21 -62 21
-10 0 -46 9 -80 19 -123 40 -173 51 -246 57 -41 4 -80 11 -86 16 -17 13 -107
21 -122 10z"/>
<path d="M2525 7230 c-3 -5 3 -10 14 -10 11 0 23 5 26 10 3 6 -3 10 -14 10
-11 0 -23 -4 -26 -10z"/>
<path d="M2458 7223 c6 -2 18 -2 25 0 6 3 1 5 -13 5 -14 0 -19 -2 -12 -5z"/>
<path d="M8180 7220 c19 -13 30 -13 30 0 0 6 -10 10 -22 10 -19 0 -20 -2 -8
-10z"/>
<path d="M2250 7210 c-12 -8 -9 -10 13 -10 15 0 27 5 27 10 0 13 -20 13 -40 0z"/>
<path d="M2005 7180 c-4 -6 8 -10 30 -10 22 0 34 4 30 10 -3 6 -17 10 -30 10
-13 0 -27 -4 -30 -10z"/>
<path d="M1930 7173 c-43 -14 -44 -16 -10 -24 34 -7 60 2 60 22 0 10 -25 11
-50 2z"/>
<path d="M1661 7159 c-13 -5 -54 -8 -90 -7 -41 1 -88 -5 -126 -16 -33 -10 -66
-20 -74 -22 -8 -3 -11 -7 -8 -10 3 -3 29 -1 59 5 29 6 115 12 190 14 76 1 138
5 138 8 0 11 -37 39 -51 38 -8 0 -25 -5 -38 -10z"/>
<path d="M925 7110 c-56 -6 -43 -14 38 -26 38 -5 47 -3 47 9 0 19 -23 24 -85
17z"/>
<path d="M1177 7114 c-16 -16 -5 -25 26 -22 17 2 31 8 30 13 -3 12 -46 19 -56
9z"/>
<path d="M540 7091 c0 -12 29 -23 41 -15 5 3 7 10 4 15 -8 12 -45 12 -45 0z"/>
<path d="M6872 7010 c25 -4 70 -15 100 -24 29 -8 94 -20 143 -26 50 -6 100
-18 112 -26 12 -7 32 -14 43 -14 11 0 37 -7 58 -16 36 -15 209 -57 302 -73 25
-4 55 -12 66 -19 25 -13 197 -52 234 -52 14 0 39 -9 55 -20 17 -11 43 -20 58
-20 15 0 41 -7 58 -15 16 -9 51 -17 77 -19 41 -3 155 -29 248 -57 57 -17 74
-12 74 21 0 30 -1 30 -54 30 -30 0 -67 4 -81 10 -14 5 -65 13 -113 17 -98 7
-159 32 -125 51 17 10 17 11 -2 26 -28 21 -164 66 -200 66 -17 0 -55 7 -85 15
-30 8 -74 15 -98 15 -50 0 -123 16 -170 37 -18 8 -70 18 -115 23 -45 5 -104
16 -131 25 -98 34 -162 46 -231 45 -38 0 -115 2 -170 4 -73 3 -87 2 -53 -4z"/>
<path d="M8150 6760 c0 -5 12 -10 26 -10 14 0 23 4 19 10 -3 6 -15 10 -26 10
-10 0 -19 -4 -19 -10z"/>
<path d="M4159 5620 c-8 -6 -6 -11 9 -19 20 -11 67 -19 267 -46 224 -31 252
-35 305 -46 30 -6 78 -15 105 -19 115 -18 179 -32 199 -42 12 -7 48 -13 81
-14 115 -3 287 -25 323 -40 46 -19 167 -44 212 -44 20 0 44 -6 55 -14 11 -7
31 -17 45 -21 14 -4 43 -19 65 -33 69 -44 251 -108 420 -147 39 -8 86 -20 105
-25 19 -5 74 -19 121 -29 47 -11 113 -32 145 -46 32 -14 100 -42 149 -62 50
-20 99 -44 110 -54 28 -25 119 -69 142 -69 11 0 28 -9 38 -20 10 -11 28 -20
41 -20 23 0 83 -30 116 -58 21 -17 69 -44 128 -72 25 -11 52 -25 60 -31 8 -5
31 -16 50 -25 19 -8 80 -38 135 -64 55 -27 118 -54 139 -59 22 -6 54 -24 71
-41 25 -24 46 -33 91 -40 32 -5 91 -18 129 -28 39 -11 88 -23 110 -27 43 -7
112 -29 160 -50 97 -43 154 -64 183 -69 l32 -5 0 59 c0 33 -3 60 -7 60 -118 7
-225 23 -293 45 -47 14 -102 31 -123 37 -21 6 -46 17 -55 25 -16 12 -15 14 6
31 17 13 23 26 20 48 -3 26 -6 29 -36 27 -18 0 -41 -8 -51 -17 -19 -17 -43
-14 -71 9 -8 7 -43 15 -77 17 -39 3 -69 10 -81 21 -11 11 -44 19 -93 23 -54 4
-93 15 -144 39 -38 19 -95 45 -125 59 -58 28 -100 52 -164 95 -41 28 -172 102
-221 125 -16 8 -57 22 -90 31 -33 10 -76 26 -95 36 -70 37 -227 102 -310 129
-47 16 -107 37 -135 49 -27 11 -101 32 -163 46 -148 33 -185 46 -318 110 -62
29 -127 56 -145 60 -84 16 -220 48 -280 66 -36 10 -85 19 -109 19 -42 0 -83
10 -225 56 -129 41 -272 62 -495 73 -239 12 -442 12 -461 1z"/>
<path d="M3950 5610 c-41 -4 -163 -12 -270 -19 -192 -13 -453 -51 -494 -73
-35 -19 -182 -31 -401 -33 -126 -1 -230 -7 -260 -14 -27 -7 -95 -17 -150 -21
-55 -5 -116 -12 -136 -15 -19 -4 -87 1 -150 11 -111 17 -307 26 -361 17 -15
-2 -26 -10 -25 -16 1 -7 -6 -10 -18 -8 -52 10 -333 7 -370 -5 -22 -7 -62 -15
-89 -19 -69 -11 -51 9 24 26 74 16 79 34 7 27 -28 -3 -108 -2 -176 2 -68 4
-138 3 -155 -1 -17 -5 -52 -11 -78 -14 -32 -4 -48 -11 -48 -21 0 -8 5 -14 11
-14 5 0 9 -10 7 -22 -3 -26 -34 -42 -99 -53 -24 -4 -50 -11 -59 -15 -8 -4 -41
-16 -73 -25 -31 -10 -62 -24 -68 -32 -6 -7 -21 -13 -32 -13 -11 0 -17 -3 -13
-7 16 -16 200 16 295 52 20 7 54 16 76 20 22 4 51 13 65 20 26 14 246 39 261
29 4 -2 36 1 71 7 35 7 149 14 253 15 105 2 213 6 240 10 84 11 265 5 329 -12
37 -10 109 -17 180 -18 108 -1 120 -3 130 -21 6 -11 12 -22 14 -24 1 -3 12 4
25 15 93 81 149 93 458 97 210 3 246 6 354 31 66 14 167 31 225 37 58 5 148
19 201 29 53 11 115 19 136 18 22 0 44 2 50 5 5 3 51 9 101 12 51 3 104 10
118 15 29 11 23 31 -9 28 -12 -1 -56 -4 -97 -8z m-2170 -170 c0 -5 -12 -10
-26 -10 -14 0 -23 4 -19 10 3 6 15 10 26 10 10 0 19 -4 19 -10z m-710 -20 c11
-7 6 -10 -21 -10 -20 0 -57 -6 -83 -14 -50 -15 -113 -8 -86 9 30 19 167 30
190 15z"/>
<path d="M250 5300 c-11 -7 -7 -10 18 -10 20 0 31 4 27 10 -8 13 -26 13 -45 0z"/>
<path d="M166 5265 c-13 -14 -33 -25 -44 -25 -11 0 -24 -4 -27 -10 -3 -5 -26
-10 -51 -10 -38 0 -44 -3 -44 -21 0 -20 3 -21 52 -15 29 4 89 10 132 12 112 7
195 20 240 37 37 14 36 14 -55 12 -52 -2 -107 -8 -122 -14 -37 -14 -49 -14
-72 3 -18 13 -17 15 18 29 41 18 47 27 17 27 -12 0 -31 -11 -44 -25z"/>
<path d="M3640 5038 c-25 -5 -70 -14 -100 -19 -30 -6 -86 -20 -125 -31 -81
-24 -359 -84 -457 -99 -36 -5 -108 -8 -159 -7 -90 3 -93 4 -99 28 -6 23 -10
25 -54 22 -38 -3 -52 0 -67 17 -14 15 -32 21 -63 21 -36 0 -45 -4 -54 -26 -11
-23 -15 -25 -60 -18 -26 3 -53 12 -61 18 -9 7 -61 11 -135 11 -126 0 -183 -14
-271 -67 -44 -26 -59 -24 -50 9 3 15 14 33 23 40 14 10 15 12 2 13 -9 0 -47
-25 -85 -55 -74 -59 -71 -58 -160 -55 -46 1 -66 -3 -85 -17 -53 -40 -247 -77
-325 -62 -27 5 -57 7 -65 3 -8 -3 -67 -12 -130 -20 -185 -22 -242 -33 -301
-55 -47 -17 -66 -19 -115 -12 -59 9 -62 12 -49 46 6 13 2 17 -18 17 -14 0 -33
-7 -42 -16 -14 -15 -14 -18 0 -40 15 -23 14 -26 -22 -60 -36 -33 -108 -72
-126 -66 -4 1 -21 -5 -37 -13 -16 -8 -44 -15 -62 -15 -19 0 -59 -9 -91 -20
-31 -11 -67 -20 -81 -20 -14 0 -30 -10 -40 -25 -11 -17 -26 -25 -46 -25 -26 0
-30 -3 -30 -29 0 -20 6 -31 18 -34 79 -22 97 -17 180 47 47 35 67 44 115 50
63 7 183 38 214 55 11 5 29 8 40 5 14 -4 28 2 42 17 12 13 28 24 36 25 9 1 30
11 48 22 43 25 147 55 269 78 81 15 105 16 148 6 28 -7 64 -12 78 -12 15 0 63
-12 107 -26 73 -24 90 -25 185 -20 89 5 107 9 119 26 7 11 21 20 31 20 9 0 33
13 53 29 31 24 103 48 130 42 5 -1 41 10 80 25 90 32 256 42 294 17 27 -18
161 -45 176 -36 19 11 699 4 748 -9 38 -9 66 -8 152 6 78 13 154 17 299 15
107 -1 199 0 204 3 5 3 104 9 220 13 183 6 215 5 235 -9 20 -13 60 -15 234
-15 116 0 248 1 295 3 83 4 226 -6 325 -24 131 -23 437 -91 456 -101 15 -8
153 -39 173 -39 6 0 5 5 -2 12 -35 35 28 38 96 4 26 -13 64 -26 84 -29 20 -3
52 -13 70 -21 18 -9 47 -20 63 -25 69 -22 144 -59 199 -99 33 -23 67 -42 77
-42 9 0 43 -20 76 -44 32 -24 68 -47 81 -50 12 -4 22 -11 22 -16 0 -4 11 -11
24 -14 14 -3 27 -15 31 -26 3 -10 15 -22 25 -25 29 -9 100 -76 100 -94 0 -21
63 -71 89 -71 10 0 21 6 24 13 3 8 18 2 48 -18 35 -25 45 -38 47 -65 2 -22 18
-51 49 -87 40 -47 50 -53 84 -53 21 0 42 -6 46 -13 18 -30 153 -108 208 -121
25 -6 142 -67 205 -107 33 -21 140 -69 154 -69 8 0 44 -16 80 -35 37 -19 72
-35 79 -35 7 0 29 -11 49 -25 20 -13 56 -27 80 -31 38 -5 154 -36 243 -63 17
-6 64 -17 106 -25 138 -28 202 -45 212 -55 6 -6 19 -11 29 -11 17 0 18 12 18
150 0 112 -3 151 -12 154 -7 2 -29 9 -48 15 -60 21 -141 42 -240 61 -188 37
-216 45 -256 77 -47 37 -96 60 -146 68 -23 3 -42 14 -48 25 -6 11 -26 22 -45
26 -19 3 -39 12 -46 20 -6 8 -21 14 -33 14 -12 0 -37 11 -56 25 -19 14 -38 25
-42 25 -4 0 -29 15 -55 34 -27 18 -70 45 -98 60 -27 14 -57 30 -65 35 -25 15
-87 41 -99 41 -6 0 -8 7 -5 15 4 8 1 15 -5 15 -6 0 -11 -4 -11 -10 0 -13 -47
-13 -55 -1 -3 5 4 13 16 16 19 6 17 9 -21 32 -46 28 -63 24 -34 -8 l19 -21
-36 5 c-29 4 -88 34 -134 70 -5 4 -31 24 -57 43 -26 20 -50 45 -53 55 -4 10
-11 19 -16 19 -5 0 -9 7 -9 15 0 8 -11 17 -25 21 -14 3 -31 14 -38 24 -6 9
-22 22 -34 29 -12 6 -48 34 -79 61 -32 28 -69 53 -83 57 -14 3 -60 22 -101 40
-112 51 -155 68 -270 111 -150 55 -163 60 -285 102 -60 20 -117 40 -125 44
-34 14 -161 38 -250 46 -96 9 -152 22 -173 38 -7 5 -37 15 -67 22 -30 7 -75
18 -100 25 -43 13 -118 23 -315 45 -49 5 -148 10 -220 10 -71 0 -148 5 -170
11 -94 24 -744 45 -835 27z m3610 -1038 c0 -5 -4 -10 -9 -10 -6 0 -13 5 -16
10 -3 6 1 10 9 10 9 0 16 -4 16 -10z"/>
<path d="M4095 4691 c-19 -19 -298 -56 -497 -67 -75 -4 -138 -14 -188 -29 -41
-13 -95 -28 -120 -34 -25 -5 -61 -14 -81 -19 -20 -5 -174 -8 -345 -6 -407 5
-475 8 -501 22 -12 7 -32 12 -45 12 -32 0 -94 23 -116 43 -10 9 -32 17 -48 17
-16 0 -40 7 -53 16 -51 36 -201 -16 -201 -70 0 -39 -21 -46 -132 -49 -111 -2
-152 9 -161 44 -8 30 -34 33 -105 10 -44 -14 -69 -18 -76 -11 -13 13 -63 13
-71 0 -3 -5 -33 -10 -65 -10 -57 0 -59 -1 -62 -27 l-3 -28 -80 3 c-89 4 -169
-18 -240 -65 -33 -22 -79 -48 -183 -102 -70 -37 -135 -60 -182 -66 -30 -3 -61
-12 -69 -18 -14 -12 -154 -29 -224 -27 -22 1 -59 -9 -83 -21 -35 -16 -48 -18
-58 -9 -9 7 -29 9 -53 4 -69 -12 -59 -19 37 -24 85 -5 97 -4 111 14 21 24 39
13 39 -23 0 -26 -4 -29 -57 -40 -31 -6 -71 -11 -88 -11 -18 0 -47 -3 -64 -6
-31 -6 -31 -7 -31 -70 0 -75 -10 -72 150 -48 124 18 214 43 330 88 47 19 112
37 145 41 33 4 87 15 120 25 33 10 83 23 110 30 69 16 123 40 129 56 3 8 12
14 20 14 8 0 32 15 52 34 26 24 56 39 103 50 36 9 87 27 114 41 43 22 59 24
170 24 67 -1 134 4 149 10 18 7 46 7 85 1 32 -6 94 -12 138 -16 44 -3 105 -12
135 -21 60 -18 137 -20 369 -11 l154 7 29 32 29 31 102 -6 c56 -3 182 -9 280
-12 139 -5 180 -10 184 -21 4 -9 12 -11 27 -6 11 3 57 7 101 8 87 2 224 16
405 40 63 9 168 22 233 30 65 8 121 16 126 19 4 3 81 6 170 8 158 2 163 1 180
-20 16 -22 17 -22 76 -6 99 27 101 27 134 3 28 -20 37 -22 118 -16 48 4 104
11 123 17 19 5 75 9 125 9 49 -1 79 -4 65 -6 -48 -9 -45 -23 5 -23 28 0 72 -7
99 -15 27 -8 64 -15 81 -15 18 0 38 -7 45 -15 7 -8 22 -15 34 -15 12 0 27 -9
33 -20 15 -23 55 -45 103 -55 19 -4 43 -14 52 -22 11 -10 26 -13 48 -8 45 10
36 36 -17 50 -24 5 -53 21 -65 34 l-23 23 25 -5 c98 -22 128 -32 153 -49 l28
-20 -21 -23 c-26 -28 -19 -45 18 -45 15 0 37 -7 49 -15 16 -11 34 -14 62 -9
37 6 40 9 34 32 -5 23 -4 24 23 18 35 -9 54 -24 54 -42 0 -14 -11 -18 -42 -15
-20 2 -24 -14 -7 -25 6 -3 19 -19 29 -36 10 -16 33 -37 51 -46 30 -15 35 -23
39 -64 4 -34 12 -51 30 -65 34 -26 106 -46 158 -44 41 1 47 -2 111 -69 38 -38
73 -70 79 -70 6 0 19 -11 29 -24 10 -13 32 -27 50 -31 26 -5 34 -2 45 14 17
28 32 26 58 -6 l22 -28 -28 -5 c-36 -7 -42 -28 -10 -36 13 -3 32 -14 42 -25 9
-10 29 -19 43 -19 18 0 31 -9 43 -30 19 -34 31 -36 71 -15 28 14 31 14 70 -20
22 -19 45 -35 50 -35 5 0 46 -18 90 -39 45 -22 100 -47 122 -55 22 -8 72 -26
110 -41 39 -15 88 -31 110 -37 22 -5 67 -18 100 -28 33 -10 76 -22 95 -25 19
-4 40 -10 45 -14 6 -4 44 -18 85 -30 41 -13 89 -29 105 -36 17 -7 41 -16 55
-20 14 -3 43 -15 65 -25 22 -10 52 -23 66 -28 28 -11 47 -61 25 -66 -6 -2 -27
-8 -46 -14 -20 -7 -58 -9 -87 -5 -43 5 -54 3 -59 -11 -4 -10 -18 -16 -40 -16
-33 0 -56 -22 -40 -37 16 -16 366 -57 379 -44 11 11 -31 51 -53 51 -26 0 -80
21 -80 31 0 13 36 11 75 -5 28 -12 37 -12 51 -1 17 12 16 14 -15 33 -49 30 -8
39 69 14 19 -6 54 -13 76 -17 41 -6 41 -6 36 21 l-5 27 74 -7 c94 -9 158 -30
205 -67 31 -25 46 -29 95 -29 l59 0 0 69 0 68 -47 6 c-27 4 -93 13 -148 22
-55 9 -136 20 -181 25 -45 6 -100 17 -124 25 -23 8 -65 15 -92 15 -45 0 -103
21 -119 43 -6 8 -130 53 -284 104 -44 14 -84 30 -90 34 -5 4 -39 18 -75 32
-132 49 -250 122 -250 152 0 18 -31 35 -62 35 -34 0 -123 62 -193 133 -33 34
-78 76 -100 92 -49 37 -94 76 -109 93 -36 44 -139 122 -160 122 -10 0 -36 17
-56 39 -20 21 -46 42 -57 45 -11 4 -40 26 -64 51 -25 25 -84 64 -134 91 -49
25 -97 52 -105 59 -38 33 -267 131 -375 161 -176 50 -560 130 -715 149 -107
13 -177 15 -335 9 -255 -9 -298 -9 -420 0 -62 4 -104 3 -110 -3z m2125 -766
c0 -20 -14 -19 -32 3 -32 37 -32 44 1 28 17 -9 31 -23 31 -31z m80 -75 c0 -13
-37 -13 -45 0 -3 6 -3 15 0 20 7 12 45 -5 45 -20z m54 -26 c9 -3 16 -10 16
-16 0 -14 -43 -5 -48 10 -4 13 7 15 32 6z m144 -131 c2 -8 -5 -13 -17 -13 -12
0 -21 6 -21 16 0 18 31 15 38 -3z"/>
<path d="M6880 4286 c0 -2 7 -7 16 -10 8 -3 12 -2 9 4 -6 10 -25 14 -25 6z"/>
<path d="M6930 4252 c0 -14 35 -42 51 -42 9 0 25 -9 37 -20 12 -11 27 -20 34
-20 8 1 5 7 -7 15 -11 9 -35 29 -53 45 -31 29 -62 39 -62 22z"/>
<path d="M3071 4022 c-16 -65 -3 -100 27 -70 16 16 15 48 -1 87 l-13 31 -13
-48z"/>
<path d="M6790 3960 c0 -5 5 -10 11 -10 5 0 7 5 4 10 -3 6 -8 10 -11 10 -2 0
-4 -4 -4 -10z"/>
<path d="M2990 3665 c-10 -12 -10 -18 -1 -29 10 -12 7 -17 -12 -28 -54 -30
-97 -61 -97 -68 0 -5 9 -12 20 -15 19 -6 28 -25 13 -25 -5 0 -50 -9 -102 -20
-52 -11 -111 -20 -131 -20 -21 0 -68 -9 -105 -21 -44 -13 -80 -18 -101 -14
-19 3 -43 1 -54 -5 -11 -6 -26 -7 -33 -3 -6 4 -111 8 -232 9 -152 0 -227 4
-242 12 -19 10 -28 10 -52 -3 -17 -8 -34 -21 -38 -28 -4 -6 -20 -18 -36 -26
-21 -11 -30 -12 -39 -3 -9 9 -8 12 4 12 9 0 20 4 23 10 12 19 -90 -2 -140 -30
-37 -20 -59 -26 -84 -22 -20 3 -47 -1 -65 -10 -79 -38 -110 -48 -155 -48 -36
0 -53 -5 -66 -21 -16 -16 -26 -19 -58 -14 -29 5 -43 3 -58 -11 -11 -10 -46
-22 -77 -26 -31 -4 -88 -12 -127 -18 -76 -12 -112 -17 -192 -26 -40 -5 -52
-10 -56 -26 -5 -19 -11 -20 -74 -14 -58 6 -74 4 -108 -14 -30 -16 -50 -19 -80
-14 -50 8 -75 21 -75 38 0 8 -8 17 -17 21 -16 6 -234 23 -315 25 l-28 0 0
-264 0 -263 60 21 c53 18 62 19 71 6 5 -8 7 -27 5 -42 -7 -37 5 -35 26 2 9 17
25 30 34 30 10 0 42 8 71 17 43 14 58 15 73 5 26 -16 40 -15 40 3 0 16 56 49
69 40 5 -3 7 -23 4 -45 -3 -22 -1 -40 4 -40 10 0 41 34 59 65 17 31 59 35 256
29 151 -4 198 -3 240 10 67 19 315 46 422 46 44 0 133 7 196 16 131 18 150 19
314 30 l118 7 -17 -27 c-25 -38 -5 -58 48 -49 30 5 37 10 37 29 0 12 5 26 10
29 19 12 320 -7 333 -20 38 -37 98 -45 148 -19 33 16 158 22 284 13 83 -6 95
-12 87 -41 -5 -19 -2 -21 29 -15 19 3 41 8 50 12 9 3 23 -1 32 -9 20 -20 31
-20 48 0 12 14 28 16 111 10 54 -4 116 -13 138 -21 27 -10 80 -14 159 -14 69
1 134 -4 155 -11 29 -9 44 -9 65 0 21 8 53 9 132 0 60 -7 141 -9 192 -5 76 6
87 5 87 -9 0 -9 2 -16 5 -16 10 0 55 32 91 65 33 30 44 34 120 40 96 8 132 3
228 -31 44 -16 80 -23 97 -19 15 4 45 2 66 -4 21 -6 113 -13 204 -15 151 -4
176 -7 275 -37 113 -33 204 -73 204 -90 0 -16 -43 -10 -83 11 -30 16 -41 18
-56 8 -15 -9 -26 -9 -47 1 -19 8 -30 9 -38 1 -17 -17 5 -29 69 -36 41 -5 69
-14 88 -31 20 -16 41 -23 72 -23 24 0 47 -5 50 -11 4 -6 19 -7 36 -4 43 10 54
-3 28 -31 l-22 -24 -44 26 c-42 24 -99 36 -261 51 -37 3 -56 11 -66 25 -12 17
-21 19 -49 14 -25 -5 -40 -1 -59 13 -22 17 -39 20 -124 19 -97 -2 -209 13
-269 34 -16 6 -46 13 -65 16 -19 2 -40 11 -47 18 -14 14 -89 28 -119 22 -14
-2 -19 -12 -19 -33 0 -43 -9 -52 -60 -59 -24 -4 -47 -10 -49 -14 -3 -5 -83 -8
-178 -7 -155 0 -180 2 -243 24 -38 13 -75 27 -81 32 -6 5 -35 8 -65 7 -30 0
-67 3 -82 7 -18 5 -37 3 -53 -5 -19 -11 -32 -11 -66 -1 -29 9 -99 12 -223 11
-99 -2 -193 1 -208 5 -19 5 -33 3 -45 -7 -11 -10 -47 -17 -100 -21 -45 -3 -89
-10 -97 -17 -8 -6 -27 -11 -42 -9 -15 1 -45 -1 -66 -6 -27 -5 -43 -3 -62 9
-30 19 -58 22 -33 2 13 -10 15 -15 6 -24 -17 -17 -68 -15 -74 3 -4 10 -20 15
-43 15 -45 0 -55 -8 -38 -28 10 -13 9 -15 -10 -10 -13 4 -36 -3 -60 -18 -21
-13 -46 -24 -57 -24 -10 0 -44 -14 -76 -31 -50 -27 -67 -30 -117 -27 -42 2
-61 -1 -69 -11 -9 -12 -19 -9 -58 17 -26 18 -55 32 -65 32 -9 0 -22 5 -29 12
-6 6 -32 11 -57 10 -42 0 -46 2 -43 21 3 19 10 22 58 24 30 2 68 7 84 13 15 5
32 7 37 4 5 -3 18 0 30 7 35 18 6 25 -73 18 -40 -4 -105 -8 -143 -8 -39 -1
-75 -5 -80 -10 -6 -5 -68 -12 -140 -15 -204 -9 -200 -8 -203 -33 -5 -33 -55
-47 -172 -49 -196 -4 -303 -15 -329 -35 -13 -11 -36 -19 -52 -19 -38 0 -59 -9
-59 -26 0 -18 -18 -18 -36 1 -9 8 -26 15 -38 15 -13 0 -29 -7 -36 -15 -16 -19
-100 -20 -126 -1 -21 16 -15 21 36 29 14 2 1 5 -28 6 -53 1 -122 -20 -122 -38
0 -19 -86 -51 -138 -51 -29 0 -52 4 -52 9 0 5 -3 17 -6 25 -4 12 4 20 30 31
20 8 36 21 36 29 0 19 -43 28 -75 16 -14 -5 -38 -10 -52 -10 -16 0 -27 -7 -30
-20 -7 -25 -33 -33 -68 -20 -29 11 -43 6 -62 -21 -14 -19 -58 -15 -86 9 -17
16 -18 14 -15 -28 3 -45 3 -45 56 -60 68 -19 67 -34 -3 -27 l-55 6 0 -205 0
-205 33 18 c29 16 70 18 457 19 279 1 439 5 465 12 22 7 58 12 80 13 22 0 34
3 28 6 -7 2 -13 12 -13 20 0 12 7 14 33 9 185 -35 334 -39 387 -10 32 17 54
19 225 17 344 -5 367 -6 407 -31 30 -19 50 -22 131 -22 53 0 108 5 124 11 15
6 96 12 178 14 133 2 163 6 258 34 59 17 122 31 140 31 17 0 49 5 69 10 49 14
260 21 568 20 249 -2 300 -8 373 -46 16 -7 39 -14 52 -14 13 0 27 -5 30 -10 4
-7 -22 -8 -78 -4 -58 5 -86 3 -91 -5 -4 -6 -19 -11 -33 -11 -31 0 -93 -21 -93
-31 0 -12 53 -18 104 -12 39 5 48 3 44 -8 -11 -32 -174 -34 -237 -3 -19 10
-55 15 -93 14 -35 -1 -88 3 -118 9 -45 9 -56 8 -63 -4 -4 -8 -21 -15 -38 -15
-22 0 -32 6 -39 25 -13 34 -39 32 -53 -5 -10 -26 -16 -29 -57 -32 -37 -2 -46
-7 -48 -24 -2 -16 6 -25 31 -37 75 -36 698 -12 939 36 100 19 137 22 328 19
186 -3 221 -6 257 -23 71 -32 139 -44 176 -31 22 7 56 8 106 2 41 -4 89 -6
107 -3 17 3 46 -1 65 -10 82 -35 118 -39 298 -31 97 5 185 8 196 7 11 -1 56
-4 101 -6 44 -2 86 -7 92 -11 7 -4 24 -10 39 -12 40 -7 52 -17 71 -54 12 -25
27 -37 54 -45 20 -5 40 -13 44 -18 4 -4 18 -7 30 -7 14 0 32 -12 46 -30 27
-37 46 -25 28 17 -8 17 -29 37 -53 48 -21 11 -43 28 -47 40 -7 18 -42 38 -165
95 -52 24 -81 28 -255 35 -80 3 -172 10 -205 15 -33 5 -104 12 -158 16 -54 4
-100 11 -103 15 -8 14 -61 11 -101 -6 -56 -24 -116 -19 -152 11 -22 18 -50 28
-94 34 -34 5 -72 12 -83 15 -14 5 -23 1 -27 -9 -4 -11 -19 -16 -43 -16 l-37 0
23 26 c21 21 22 27 10 34 -8 5 -30 10 -48 10 -18 0 -50 10 -72 22 -35 20 -42
21 -74 10 -19 -7 -86 -17 -148 -22 -62 -5 -139 -15 -171 -21 -49 -11 -60 -10
-68 2 -25 40 -14 44 114 44 100 0 127 4 149 18 22 15 33 16 65 8 21 -5 77 -10
124 -9 70 0 102 -5 165 -28 44 -15 106 -29 139 -31 33 -1 114 -4 180 -7 66 -3
156 -8 200 -12 44 -5 217 -9 385 -10 168 0 328 -6 355 -11 90 -18 260 -65 270
-74 5 -5 17 -9 27 -9 27 0 86 -41 141 -98 44 -44 48 -52 37 -72 -9 -17 -8 -26
3 -43 41 -63 184 -177 222 -177 21 0 115 -59 115 -73 0 -17 -121 23 -147 48
-8 8 -21 15 -30 15 -8 0 -33 16 -56 35 -22 19 -49 35 -60 35 -11 0 -40 16 -64
36 -48 40 -62 38 -47 -4 7 -20 17 -28 39 -30 32 -4 65 -32 65 -55 0 -21 18
-33 85 -55 62 -21 138 -73 116 -80 -7 -2 -20 3 -30 12 -22 20 -84 41 -146 50
-60 8 -115 32 -115 49 0 7 -13 21 -30 30 -20 12 -30 26 -30 43 0 19 -5 24 -25
24 -13 0 -29 8 -34 18 -9 15 -12 15 -21 2 -14 -21 -12 -37 5 -43 15 -6 69 -86
63 -93 -8 -7 -65 14 -87 32 -12 11 -34 19 -49 19 -20 0 -28 5 -30 23 -2 12
-14 29 -26 37 -31 20 -115 45 -132 38 -7 -3 -28 5 -46 18 -17 13 -74 45 -126
72 l-94 49 -252 3 c-138 2 -276 8 -306 13 -34 6 -87 6 -139 1 -97 -11 -112 -8
-104 20 6 23 -17 37 -43 27 -15 -6 -15 -8 1 -26 18 -20 17 -20 -18 -20 -21 0
-37 4 -37 9 0 5 -16 19 -35 31 -31 19 -40 21 -85 11 -53 -11 -80 -7 -80 14 0
26 -399 38 -502 15 -27 -5 -69 -14 -94 -20 -26 -5 -52 -14 -58 -19 -6 -5 -54
-10 -106 -10 -69 -1 -111 -6 -153 -21 -57 -20 -97 -19 -97 2 0 7 -14 8 -42 3
-24 -4 -74 -8 -113 -10 -38 -1 -127 -5 -197 -9 -120 -7 -129 -6 -157 13 -39
28 -44 27 -36 -8 7 -35 -6 -45 -75 -56 -25 -4 -55 -16 -67 -28 -22 -19 -24
-20 -42 -3 -18 16 -31 17 -113 10 -51 -5 -111 -8 -132 -6 -22 1 -42 -2 -46 -7
-9 -16 -192 -108 -231 -117 -36 -8 -77 -11 -299 -20 -74 -2 -178 -7 -230 -9
-63 -2 -98 -8 -105 -17 -28 -36 -59 -44 -165 -41 -185 4 -343 20 -391 39 -45
17 -47 17 -93 -6 -54 -26 -104 -23 -165 10 -39 20 -168 53 -197 50 -31 -4 -44
-1 -44 10 0 6 9 10 20 10 11 0 20 4 20 9 0 5 17 15 37 21 21 6 45 14 53 17 40
16 276 50 292 42 10 -6 19 -5 23 1 13 22 26 9 20 -19 -11 -52 6 -68 82 -75 37
-4 86 -12 108 -18 52 -13 222 7 248 30 14 13 42 17 117 18 61 1 111 8 132 17
56 25 71 29 122 34 27 2 68 13 92 23 36 17 72 21 220 24 113 3 185 1 200 -6
27 -13 54 3 54 32 0 10 15 28 34 40 19 11 36 25 38 30 4 12 137 49 194 54 22
3 58 11 78 20 31 13 46 14 79 5 99 -26 177 -19 177 17 0 13 -10 15 -72 10 -40
-3 -84 -6 -98 -6 -14 0 -56 0 -94 -1 -66 -1 -69 0 -63 21 5 20 3 22 -25 16
-17 -3 -35 -6 -41 -6 -5 0 -2 -9 9 -21 18 -20 18 -21 0 -35 -13 -9 -24 -10
-36 -4 -26 14 -129 -7 -149 -30 -9 -11 -29 -22 -46 -26 -25 -5 -28 -4 -17 7
18 19 15 39 -7 39 -30 0 -51 -11 -51 -26 0 -10 -13 -14 -45 -14 -31 0 -47 -5
-51 -15 -9 -21 -79 -38 -153 -36 -34 1 -68 -2 -75 -7 -6 -5 -37 -13 -69 -16
-31 -4 -64 -14 -72 -23 -9 -8 -25 -13 -36 -10 -11 3 -32 -1 -47 -9 -15 -8 -34
-14 -42 -14 -9 0 -21 -5 -28 -12 -7 -7 -61 -13 -139 -16 -110 -4 -130 -7 -141
-23 -14 -20 -72 -35 -98 -25 -24 9 -3 30 46 46 55 18 32 31 -41 23 -52 -5
-110 9 -95 24 13 13 -18 33 -50 33 -26 0 -32 -4 -28 -15 4 -9 0 -15 -10 -15
-9 0 -16 7 -16 16 0 14 -13 15 -109 10 -60 -4 -133 -14 -162 -22 -81 -24 -126
-28 -159 -14 -25 10 -34 9 -64 -9 -27 -17 -43 -20 -75 -15 -47 8 -53 21 -13
30 15 4 32 11 39 16 6 5 28 6 47 2 36 -6 66 7 66 28 0 11 -110 6 -129 -6 -20
-13 -234 -10 -258 3 -12 6 -47 11 -78 11 -53 0 -60 -3 -107 -45 -28 -25 -61
-48 -74 -51 -13 -3 -24 -9 -24 -13 0 -3 -16 -15 -36 -26 -19 -10 -42 -32 -50
-47 -8 -15 -19 -28 -24 -28 -6 0 -10 -81 -10 -211 l0 -211 23 6 c12 4 47 14
77 22 30 9 84 21 120 26 87 12 131 26 157 51 20 18 30 19 98 13 42 -4 87 -11
101 -16 14 -6 45 -10 69 -10 24 0 54 -4 67 -9 109 -42 159 -53 189 -42 17 6
42 8 54 5 13 -3 39 2 57 10 31 15 38 15 70 2 32 -14 46 -14 119 -1 46 8 85 15
87 15 1 0 2 11 2 25 0 27 4 30 62 39 24 4 41 2 50 -7 16 -16 153 -38 223 -36
28 0 63 -4 80 -11 16 -6 66 -11 110 -10 44 0 107 -4 140 -9 33 -5 90 -10 127
-10 37 -1 86 -8 108 -17 30 -12 56 -15 103 -10 34 4 84 9 110 10 27 2 60 9 73
16 19 11 34 11 80 0 41 -10 63 -11 84 -3 16 6 40 8 54 6 19 -4 26 -1 26 10 0
11 15 15 68 15 38 1 109 11 157 23 57 14 106 20 138 16 28 -2 78 2 111 9 34 7
110 21 170 30 117 18 112 18 280 -33 32 -10 68 -14 104 -10 31 3 108 -1 171
-9 177 -24 286 -9 279 39 -3 21 -10 23 -123 30 -85 6 -129 6 -152 -3 -27 -9
-44 -8 -99 9 -37 12 -94 21 -129 21 -36 0 -75 6 -91 15 -16 8 -39 15 -51 15
-13 0 -23 4 -23 9 0 13 110 21 152 12 20 -5 40 -6 43 -3 7 7 96 20 175 26 87
6 119 16 149 47 25 24 34 27 67 22 22 -3 46 -9 54 -13 18 -9 349 -5 438 6 56
6 67 4 92 -15 16 -11 42 -21 58 -21 15 0 32 -4 38 -9 5 -4 29 -14 54 -20 67
-18 124 -54 128 -79 4 -28 30 -28 81 -3 49 26 68 48 53 63 -26 26 -11 33 66
31 125 -2 183 -11 251 -38 36 -14 68 -25 73 -25 4 0 17 -9 28 -20 11 -11 32
-20 48 -20 15 0 41 -9 57 -20 20 -13 47 -20 79 -20 45 0 51 -3 102 -55 30 -30
61 -55 68 -55 8 0 37 -27 65 -60 43 -52 49 -65 44 -90 l-5 -30 916 0 c604 0
916 3 916 10 0 6 16 10 35 10 19 0 35 -4 35 -10 0 -5 11 -10 25 -10 14 0 25 5
25 10 0 6 7 10 15 10 8 0 29 6 47 14 56 23 101 35 164 42 59 6 62 5 93 -25 18
-18 42 -31 56 -31 14 0 25 -4 25 -10 0 -6 33 -10 80 -10 l81 0 -3 92 -3 92
-43 31 c-38 26 -54 30 -120 33 -47 2 -104 -2 -145 -12 -38 -9 -84 -16 -104
-16 -20 0 -54 -5 -77 -11 -67 -19 -210 -72 -226 -84 -32 -24 -118 -49 -180
-52 -182 -8 -223 -11 -320 -24 -114 -15 -229 -15 -312 0 -147 27 -225 42 -245
46 -13 3 -29 20 -39 40 -16 33 -61 75 -82 75 -5 0 -19 9 -31 20 -13 10 -43 22
-68 26 -24 3 -57 17 -73 30 -15 13 -33 24 -39 24 -6 0 -29 11 -51 25 -43 27
-45 49 -5 59 15 4 25 15 27 29 2 16 11 23 32 25 28 3 28 3 22 -32 -5 -28 -4
-36 8 -36 22 0 76 -33 76 -47 0 -8 13 -13 32 -13 31 0 62 -8 141 -36 20 -8 52
-14 71 -14 48 0 93 -18 99 -40 3 -11 13 -18 23 -18 11 1 62 -7 114 -16 68 -13
122 -16 190 -12 52 3 154 7 227 9 72 2 144 9 160 15 25 11 64 19 238 54 30 6
61 20 77 35 24 23 34 25 115 25 48 -1 101 -5 118 -10 21 -6 54 -3 110 10 76
18 120 38 82 38 -10 0 -22 11 -27 25 -10 26 -13 27 -65 29 -22 1 -30 6 -30 19
0 13 20 27 70 48 57 24 79 29 120 25 28 -3 69 -7 93 -9 l42 -4 0 450 0 450
-36 -6 c-19 -3 -47 -1 -62 4 -18 7 -34 6 -54 -2 -22 -9 -36 -8 -73 7 -25 11
-48 27 -51 37 -11 35 -41 40 -218 33 -101 -3 -187 -2 -211 4 -22 5 -139 12
-260 15 -121 4 -236 10 -255 16 -19 5 -53 9 -76 9 -22 0 -58 8 -80 19 -21 10
-57 22 -79 26 -22 4 -71 17 -110 30 -38 13 -113 31 -165 40 -52 9 -102 20
-110 24 -8 5 -53 14 -100 21 -89 14 -130 31 -130 55 0 20 -72 55 -114 55 -38
0 -99 15 -211 50 -265 84 -382 138 -477 219 -35 30 -79 56 -110 66 -76 25
-151 56 -168 71 -9 7 -38 18 -65 24 -60 13 -135 42 -135 52 0 4 -16 22 -35 39
-19 18 -35 37 -35 44 0 19 -52 61 -101 84 -26 11 -87 29 -135 40 -114 26 -143
35 -182 55 -26 13 -67 16 -249 16 -135 0 -253 5 -311 14 -67 10 -102 11 -125
4 -18 -6 -70 -12 -117 -14 -47 -2 -137 -7 -200 -10 -168 -10 -259 -7 -311 9
-26 8 -53 11 -60 7 -20 -11 -152 13 -157 28 -2 7 4 22 13 32 25 28 4 50 -46
50 -21 0 -41 5 -44 10 -9 15 -51 12 -65 -5z m2670 -1063 c9 -10 14 -24 12 -33
-5 -27 -82 -41 -82 -15 0 8 8 17 18 22 12 6 3 10 -32 13 -55 7 -73 27 -29 34
43 7 96 -3 113 -21z m-945 -42 c-3 -5 -10 -10 -16 -10 -5 0 -9 5 -9 10 0 6 7
10 16 10 8 0 12 -4 9 -10z m1093 0 c24 -6 66 -11 95 -12 69 -1 120 -23 112
-47 -4 -14 1 -20 26 -25 17 -3 43 -6 57 -6 13 0 30 -6 36 -14 8 -11 22 -12 61
-6 79 12 165 -6 165 -36 0 -19 -66 -54 -79 -41 -8 8 -17 7 -34 -2 -24 -13 -68
-3 -81 18 -4 6 -27 8 -55 4 -68 -8 -96 2 -141 47 -22 22 -48 40 -59 40 -34 0
-51 -11 -51 -35 0 -36 -24 -50 -54 -30 -33 22 -33 31 -1 39 29 7 33 37 7 51
-106 58 -107 78 -4 55z m-4238 -20 c0 -5 -13 -10 -30 -10 -16 0 -30 5 -30 10
0 6 14 10 30 10 17 0 30 -4 30 -10z m3117 -15 c48 -4 90 -2 101 4 14 8 22 5
35 -10 22 -25 151 -28 178 -3 21 19 39 11 39 -18 0 -17 4 -19 28 -14 57 12
151 16 157 6 3 -5 28 -10 55 -10 37 0 55 -6 78 -25 18 -15 42 -25 61 -25 40 0
40 -16 1 -23 -39 -8 -38 -20 6 -46 44 -26 46 -26 38 4 -6 22 -3 25 23 25 16 0
33 -4 38 -9 6 -5 63 -27 128 -50 136 -47 180 -68 172 -81 -4 -7 -13 -6 -25 0
-24 13 -117 13 -125 0 -11 -18 -27 -11 -20 9 8 25 -4 32 -68 35 -29 1 -59 6
-67 11 -8 5 -44 9 -80 10 -72 1 -134 30 -143 65 -4 17 0 20 24 20 30 0 34 6
20 28 -6 10 -13 11 -35 1 -23 -11 -29 -10 -51 11 -22 21 -30 22 -71 14 -41 -8
-48 -13 -58 -44 -9 -29 -17 -36 -45 -40 -58 -9 -50 -30 11 -30 76 0 91 -19 36
-45 -43 -21 -50 -37 -34 -75 10 -23 -46 -40 -132 -40 -77 0 -152 -23 -152 -46
0 -17 -16 -18 -57 -4 -17 6 -43 12 -59 14 -16 2 -32 4 -35 5 -3 0 -11 12 -17
26 -11 23 -14 24 -76 18 -43 -4 -70 -2 -79 6 -8 6 -39 12 -70 14 -30 1 -53 5
-51 8 5 9 -45 21 -56 14 -6 -4 -10 -13 -10 -21 0 -8 -8 -15 -17 -15 -41 -3
-199 -9 -353 -12 -91 -3 -221 -8 -290 -12 -150 -9 -348 1 -331 18 6 6 11 15
11 19 0 12 -58 10 -65 -2 -3 -5 2 -10 12 -10 16 -1 17 -1 1 -10 -11 -7 -35 -6
-70 0 -141 29 -125 52 39 54 112 1 149 8 139 25 -6 9 -290 4 -319 -5 -9 -3
-15 -10 -11 -15 3 -6 0 -16 -6 -24 -9 -11 -34 -15 -90 -15 -54 0 -81 -4 -89
-14 -16 -19 -59 -27 -163 -33 -82 -4 -87 -6 -85 -26 2 -18 -5 -23 -47 -30 -41
-8 -50 -7 -58 7 -12 21 -34 20 -65 -4 -14 -11 -41 -22 -62 -26 -20 -4 -42 -12
-50 -18 -18 -14 -159 -12 -174 3 -7 7 -5 12 6 17 27 10 19 24 -14 24 -16 0
-47 9 -67 20 -20 10 -46 22 -57 26 -17 7 -16 8 9 12 16 2 33 -1 39 -7 19 -19
102 -13 121 8 13 14 29 19 62 18 37 -2 48 2 63 22 11 14 23 21 30 17 7 -4 17
-4 24 2 17 13 159 63 164 58 2 -2 32 7 66 20 33 13 78 24 98 24 21 0 48 4 61
9 38 15 148 31 240 36 57 3 96 10 112 20 23 15 27 15 58 -2 45 -24 226 -25
278 -1 19 9 67 19 105 22 118 9 168 16 220 31 120 34 236 54 314 55 47 1 92 5
102 10 9 6 53 9 96 8 43 -1 107 3 143 9 36 6 90 9 120 7 30 -2 92 -6 137 -9z
m738 -35 c4 -6 -8 -10 -30 -10 -22 0 -34 4 -30 10 3 6 17 10 30 10 13 0 27 -4
30 -10z m290 0 c7 -12 -12 -40 -26 -40 -10 0 -12 34 -2 43 9 10 21 9 28 -3z
m-2476 -26 c33 -24 15 -33 -69 -38 -41 -3 -85 -8 -97 -11 -15 -5 -23 -3 -23 4
0 6 9 11 19 11 11 0 21 5 23 12 3 7 29 17 59 24 30 6 56 12 59 13 3 0 16 -6
29 -15z m-2932 -20 c-3 -3 -12 -4 -19 -1 -8 3 -5 6 6 6 11 1 17 -2 13 -5z
m2713 -9 c11 -13 5 -15 -48 -15 -34 0 -63 4 -66 9 -3 4 5 6 18 4 13 -3 27 0
30 6 10 16 52 13 66 -4z m2164 -36 c-3 -5 -10 -7 -15 -3 -5 3 -7 10 -3 15 3 5
10 7 15 3 5 -3 7 -10 3 -15z m76 1 c0 -5 -9 -10 -19 -10 -11 0 -23 5 -26 10
-4 6 5 10 19 10 14 0 26 -4 26 -10z m2053 -25 c-1 -5 -9 -12 -18 -13 -26 -6
-66 7 -59 19 8 13 80 7 77 -6z m374 -42 c-9 -9 -20 -14 -24 -10 -3 4 2 14 13
21 25 19 33 10 11 -11z m-2276 -70 c24 -4 28 -9 23 -25 -6 -19 -1 -19 83 -17
83 3 113 -2 113 -20 0 -8 -125 -30 -190 -34 -29 -2 -37 3 -48 26 -16 33 -51
36 -78 6 -10 -11 -32 -27 -49 -35 -29 -13 -27 -14 38 -10 109 6 85 -18 -48
-48 -90 -21 -154 -21 -161 -1 -8 20 -41 19 -52 -1 -7 -13 -18 -15 -48 -10 -57
10 -71 20 -55 40 10 12 32 16 80 16 44 0 74 5 87 15 10 8 32 15 48 15 33 0 76
34 76 60 0 41 57 48 181 23z m-3628 -49 c9 -3 17 -12 17 -20 0 -16 17 -19 22
-4 5 16 134 -31 153 -56 6 -8 28 -22 50 -33 29 -14 36 -21 24 -26 -26 -10
-119 38 -119 61 0 13 -10 14 -64 9 -42 -5 -66 -3 -70 4 -10 16 -56 13 -62 -4
-8 -19 -63 -20 -70 -1 -3 8 -23 22 -45 30 -21 9 -39 20 -39 25 0 22 141 32
203 15z m4274 -3 c11 -6 10 -10 -4 -23 -25 -22 -191 -30 -178 -8 3 6 15 5 30
-2 30 -13 37 -8 39 27 1 26 2 27 50 20 28 -3 56 -10 63 -14z m-4532 -100 c9
-16 -35 -35 -48 -22 -9 9 -8 14 3 21 19 12 37 13 45 1z m5255 -5 c0 -9 -7 -12
-20 -9 -11 3 -20 9 -20 14 0 5 9 9 20 9 11 0 20 -6 20 -14z m-2560 -138 c-53
-11 -59 -12 -85 -9 l-20 2 20 9 c11 5 45 8 75 8 l55 0 -45 -10z m-806 -44 c24
-9 19 -22 -12 -29 -32 -7 -87 9 -62 18 8 3 24 8 35 10 11 3 21 5 22 6 1 0 8
-2 17 -5z m-114 -20 c0 -2 -7 -4 -15 -4 -8 0 -15 4 -15 10 0 5 7 7 15 4 8 -4
15 -8 15 -10z m2033 -30 c49 -9 48 -24 -2 -24 -46 0 -73 9 -65 21 6 11 16 11
67 3z m-4871 -145 c118 -18 118 -18 118 -39 0 -10 -5 -22 -10 -25 -16 -10
-130 -13 -136 -3 -3 4 4 8 15 8 25 0 35 15 18 29 -13 10 -87 4 -87 -7 0 -3 7
-13 15 -22 15 -16 13 -19 -20 -39 -20 -11 -44 -21 -53 -21 -10 0 -29 -11 -44
-25 -14 -13 -38 -27 -52 -31 -14 -3 -30 -12 -36 -19 -6 -8 -24 -17 -40 -20
-21 -5 -27 -11 -23 -22 5 -13 1 -15 -23 -10 -21 4 -35 0 -52 -16 -18 -17 -25
-18 -35 -8 -10 10 -5 18 22 39 18 15 52 32 75 37 32 9 42 16 44 35 5 32 31 70
56 81 51 24 77 42 93 64 21 28 46 31 155 14z m7490 -84 c1 -5 -18 -17 -43 -26
-24 -9 -45 -24 -47 -33 -3 -13 5 -16 43 -16 29 0 47 5 51 14 3 7 23 19 45 26
46 16 92 5 97 -23 3 -15 -5 -17 -62 -17 -36 0 -66 -4 -66 -8 0 -5 -18 -16 -41
-25 -22 -9 -43 -24 -45 -34 -6 -21 -40 -38 -96 -47 -40 -7 -53 8 -18 19 11 3
20 11 20 16 0 5 9 9 19 9 11 0 23 5 26 10 9 15 -11 12 -95 -12 -41 -12 -97
-22 -125 -23 -27 -1 -71 -6 -97 -10 -76 -12 -58 29 30 65 28 13 52 26 52 31 0
5 10 9 23 9 12 0 35 7 50 15 29 15 90 29 119 27 9 0 43 10 75 23 60 24 83 27
85 10z m-741 -18 c-1 -12 -15 -9 -19 4 -3 6 1 10 8 8 6 -3 11 -8 11 -12z
m-1466 -27 c3 -5 2 -10 -4 -10 -5 0 -13 5 -16 10 -3 6 -2 10 4 10 5 0 13 -4
16 -10z m165 -30 c0 -5 -4 -10 -9 -10 -6 0 -13 5 -16 10 -3 6 1 10 9 10 9 0
16 -4 16 -10z m-5434 -38 c-22 -5 -30 3 -21 18 5 8 11 7 22 -2 15 -12 14 -13
-1 -16z m4684 -18 c0 -10 -7 -14 -22 -12 -32 5 -35 28 -4 28 17 0 26 -5 26
-16z m860 6 c0 -5 -4 -10 -10 -10 -5 0 -10 5 -10 10 0 6 5 10 10 10 6 0 10 -4
10 -10z m-2072 -47 c-2 -10 -12 -18 -23 -18 -11 0 -21 8 -23 18 -3 13 3 17 23
17 20 0 26 -4 23 -17z m2588 -67 c26 -20 16 -25 -31 -17 -36 6 -38 8 -20 19
26 15 27 15 51 -2z m335 -4 c37 -28 135 -72 161 -72 13 0 31 7 42 15 16 12 22
12 46 0 31 -16 120 -11 188 11 51 17 72 18 72 4 0 -5 -9 -10 -20 -10 -19 0
-44 -8 -115 -40 -54 -24 -207 -34 -261 -17 -23 7 -53 26 -68 43 -14 18 -44 39
-65 47 -22 9 -42 21 -46 27 -11 17 41 11 66 -8z m-3489 -16 c28 0 43 -5 38
-10 -16 -16 -110 -19 -166 -6 -77 19 -69 34 14 25 37 -4 88 -8 114 -9z m2243
4 c-3 -5 -12 -10 -20 -10 -8 0 -17 5 -20 10 -4 6 5 10 20 10 15 0 24 -4 20
-10z m1985 -11 c0 -5 -11 -9 -25 -9 -26 0 -34 15 -12 23 16 5 37 -3 37 -14z
m111 6 c0 -5 -9 -11 -21 -13 -20 -3 -27 8 -13 22 10 9 34 3 34 -9z m-4651 -15
c0 -5 -7 -7 -15 -4 -8 4 -15 8 -15 10 0 2 7 4 15 4 8 0 15 -4 15 -10z m3720 3
c25 -5 40 -17 62 -54 19 -30 35 -46 44 -42 14 5 84 -23 84 -33 0 -8 -72 7
-105 21 -16 8 -43 27 -59 44 -21 22 -39 31 -61 31 -30 0 -55 15 -55 32 0 10
45 10 90 1z m980 -12 c0 -12 -20 -25 -27 -18 -7 7 6 27 18 27 5 0 9 -4 9 -9z
m-1108 -18 c22 -20 23 -33 3 -33 -8 0 -15 4 -15 10 0 5 -12 16 -27 24 l-28 15
24 1 c14 0 33 -7 43 -17z m-5244 -20 c-4 -21 -36 -29 -51 -14 -9 9 -8 14 3 21
25 16 52 12 48 -7z m211 6 c17 -6 31 -14 31 -18 0 -4 -20 -12 -45 -19 -54 -14
-95 -2 -95 28 0 17 7 20 39 20 21 0 52 -5 70 -11z m101 -29 c0 -5 -6 -10 -14
-10 -8 0 -18 5 -21 10 -3 6 3 10 14 10 12 0 21 -4 21 -10z m440 -15 c35 -14
79 -25 97 -25 18 0 33 -4 33 -10 0 -15 -103 -12 -141 5 -37 16 -69 39 -69 49
0 10 13 7 80 -19z m4600 5 c0 -5 -7 -10 -15 -10 -8 0 -15 5 -15 10 0 6 7 10
15 10 8 0 15 -4 15 -10z m-4720 -15 c0 -19 -32 -36 -50 -25 -11 7 -11 11 -1
24 17 20 51 21 51 1z m4569 -144 c12 -21 5 -31 -20 -31 -22 0 -31 13 -23 34 8
22 31 20 43 -3z"/>
<path d="M5845 2520 c-3 -5 -1 -10 4 -10 6 0 11 5 11 10 0 6 -2 10 -4 10 -3 0
-8 -4 -11 -10z"/>
<path d="M4982 2453 c-18 -7 -4 -23 19 -23 12 0 19 5 17 12 -5 14 -18 18 -36
11z"/>
<path d="M4821 2431 c-8 -13 -25 -20 -58 -24 -27 -2 -73 -12 -103 -22 -30 -9
-73 -19 -95 -21 -22 -1 -42 -3 -45 -4 -3 -1 -9 -3 -15 -4 -5 -1 -19 -6 -30
-10 -11 -4 -26 -10 -32 -12 -7 -2 -13 -9 -13 -15 0 -8 13 -9 43 -4 23 3 51 8
62 10 11 1 28 6 38 10 10 4 36 3 56 -4 49 -14 48 -14 54 9 3 14 14 20 31 20
14 0 26 -4 26 -10 0 -5 24 -10 54 -10 30 0 58 5 61 10 3 6 16 10 29 10 39 0
57 21 50 58 -6 31 -8 32 -55 32 -37 0 -51 -4 -58 -19z m-26 -61 c-3 -5 -15
-10 -26 -10 -10 0 -19 5 -19 10 0 6 12 10 26 10 14 0 23 -4 19 -10z"/>
<path d="M4457 2413 c-4 -3 -24 -6 -44 -5 -52 2 -78 -14 -37 -23 16 -4 36 -9
45 -11 15 -4 57 32 47 41 -2 3 -8 2 -11 -2z"/>
<path d="M4258 2383 c-32 -2 -58 -9 -58 -15 0 -6 13 -8 33 -4 29 5 68 -7 57
-18 -6 -5 -154 -7 -299 -3 -82 3 -106 7 -116 20 -10 14 -24 16 -81 10 -81 -7
-112 -19 -95 -36 12 -12 133 -23 364 -32 70 -3 137 -9 150 -14 12 -4 33 -4 47
0 14 4 41 7 61 8 20 1 42 8 49 16 10 12 8 16 -15 25 -20 8 -26 15 -22 30 3 12
0 19 -6 18 -7 -1 -38 -3 -69 -5z"/>
<path d="M3458 2373 c7 -3 16 -2 19 1 4 3 -2 6 -13 5 -11 0 -14 -3 -6 -6z"/>
<path d="M4075 2370 c3 -5 17 -10 30 -10 13 0 27 5 30 10 4 6 -8 10 -30 10
-22 0 -34 -4 -30 -10z"/>
<path d="M3535 2349 c-4 -6 -5 -12 -2 -15 7 -8 117 8 117 17 0 13 -108 11
-115 -2z"/>
<path d="M5525 2320 c3 -5 15 -10 26 -10 10 0 19 5 19 10 0 6 -12 10 -26 10
-14 0 -23 -4 -19 -10z"/>
<path d="M3423 2303 c9 -2 23 -2 30 0 6 3 -1 5 -18 5 -16 0 -22 -2 -12 -5z"/>
<path d="M2631 2243 c-13 -3 -37 -13 -55 -24 -17 -10 -42 -19 -55 -19 -13 0
-30 -8 -36 -17 -13 -17 -14 -17 -32 0 -27 24 -45 22 -41 -5 3 -20 9 -23 43
-22 22 0 67 9 100 18 33 10 71 20 85 22 32 6 55 34 37 46 -6 4 -14 7 -17 6 -3
0 -16 -3 -29 -5z"/>
<path d="M2790 2210 c-11 -7 -6 -10 20 -10 26 0 31 3 20 10 -8 5 -17 10 -20
10 -3 0 -12 -5 -20 -10z"/>
<path d="M2705 2189 c-10 -15 3 -25 16 -12 7 7 7 13 1 17 -6 3 -14 1 -17 -5z"/>
<path d="M2263 2143 c-7 -3 -13 -9 -13 -14 0 -12 37 -12 44 0 7 11 -14 20 -31
14z"/>
<path d="M2548 2133 c7 -3 16 -2 19 1 4 3 -2 6 -13 5 -11 0 -14 -3 -6 -6z"/>
<path d="M7700 3100 c0 -5 7 -10 15 -10 8 0 15 5 15 10 0 6 -7 10 -15 10 -8 0
-15 -4 -15 -10z"/>
<path d="M2295 2790 c3 -5 15 -10 25 -10 10 0 22 5 25 10 4 6 -7 10 -25 10
-18 0 -29 -4 -25 -10z"/>
<path d="M1898 2770 c13 -6 31 -6 45 0 18 7 14 9 -23 9 -37 0 -41 -2 -22 -9z"/>
<path d="M580 2700 c0 -5 14 -10 30 -10 17 0 30 5 30 10 0 6 -13 10 -30 10
-16 0 -30 -4 -30 -10z"/>
<path d="M4700 2701 c0 -12 39 -21 45 -11 3 4 -2 11 -11 14 -22 8 -34 7 -34
-3z"/>
<path d="M4760 2680 c0 -5 10 -10 23 -10 18 0 19 2 7 10 -19 13 -30 13 -30 0z"/>
<path d="M798 2653 c6 -2 18 -2 25 0 6 3 1 5 -13 5 -14 0 -19 -2 -12 -5z"/>
<path d="M280 2635 c0 -8 6 -15 14 -15 22 0 28 17 10 24 -22 9 -24 8 -24 -9z"/>
<path d="M2178 2623 c7 -3 16 -2 19 1 4 3 -2 6 -13 5 -11 0 -14 -3 -6 -6z"/>
<path d="M1213 2584 c-7 -3 -13 -12 -13 -20 0 -11 18 -14 80 -14 83 0 107 13
43 23 -21 4 -51 9 -68 11 -16 3 -36 3 -42 0z"/>
<path d="M1008 2573 c-24 -6 -23 -23 1 -23 26 0 51 10 51 21 0 9 -22 10 -52 2z"/>
<path d="M730 2546 c0 -9 30 -14 35 -6 4 6 -3 10 -14 10 -12 0 -21 -2 -21 -4z"/>
<path d="M2985 1991 c-19 -8 -19 -8 2 -19 42 -23 125 -10 109 17 -8 12 -81 14
-111 2z"/>
<path d="M3163 1992 c-18 -2 -33 -8 -33 -13 0 -8 67 -3 78 6 8 7 -16 10 -45 7z"/>
<path d="M1515 1914 c-33 -9 -70 -17 -82 -20 -13 -2 -23 -9 -23 -15 0 -7 10
-9 23 -6 12 3 55 9 95 13 77 7 89 -1 56 -37 -31 -34 -11 -49 64 -49 38 0 83 5
101 11 38 13 61 -1 61 -38 0 -22 3 -24 33 -18 17 4 37 11 43 16 5 4 19 6 31 3
13 -4 30 3 49 19 l29 25 -25 6 c-14 3 -36 4 -50 3 -19 -2 -26 3 -28 21 -3 19
-9 22 -45 22 -31 0 -48 7 -69 27 -26 25 -36 27 -116 29 -50 1 -112 -4 -147
-12z"/>
<path d="M1957 1923 c-13 -12 -7 -33 8 -33 8 0 15 9 15 20 0 20 -11 26 -23 13z"/>
<path d="M5951 1866 c64 -33 109 -42 109 -22 0 16 -84 46 -129 46 -22 0 -19
-4 20 -24z"/>
<path d="M1350 1860 c-8 -5 -10 -10 -5 -10 6 0 17 5 25 10 8 5 11 10 5 10 -5
0 -17 -5 -25 -10z"/>
<path d="M1080 1845 l-45 -12 70 -4 c79 -5 144 3 110 13 -47 14 -93 15 -135 3z"/>
<path d="M920 1815 c-25 -8 -58 -17 -73 -20 -15 -3 -25 -10 -22 -15 4 -6 18
-7 33 -4 55 13 122 37 128 45 7 12 -13 10 -66 -6z"/>
<path d="M6100 1820 c0 -5 5 -10 11 -10 5 0 7 5 4 10 -3 6 -8 10 -11 10 -2 0
-4 -4 -4 -10z"/>
<path d="M1768 1743 c7 -3 16 -2 19 1 4 3 -2 6 -13 5 -11 0 -14 -3 -6 -6z"/>
<path d="M6375 1530 c-3 -6 1 -13 10 -16 19 -8 30 0 20 15 -8 14 -22 14 -30 1z"/>
<path d="M8400 1445 c-7 -8 -18 -15 -26 -15 -12 0 -44 -37 -44 -51 0 -12 124
-4 148 9 12 7 22 22 22 34 0 17 -3 19 -12 10 -18 -18 -36 -15 -43 8 -8 24 -28
26 -45 5z"/>
<path d="M6353 1383 c-18 -6 -4 -33 17 -33 24 0 33 27 12 32 -9 3 -22 3 -29 1z"/>
<path d="M4226 1331 c-4 -6 5 -13 21 -17 15 -3 55 -14 88 -25 149 -49 159 -50
519 -75 91 -6 149 1 143 19 -2 8 -41 14 -108 19 -150 10 -263 24 -287 37 -11
6 -44 11 -72 11 -28 0 -61 5 -72 11 -11 6 -39 13 -62 14 -22 2 -69 7 -102 10
-40 5 -64 3 -68 -4z"/>
<path d="M5865 1140 c-10 -16 4 -62 15 -55 13 8 13 52 1 60 -5 3 -13 0 -16 -5z"/>
</g>
</svg>
